# xmcd
#
# Track frame offsets:
#	150
#	16407
#	29767
#	43972
#	58310
#	73332
#	85671
#	98403
#	113881
#	129297
#	144354
#	159096
#	173763
#	187062
#	200838
#	215020
#	228043
#	241727
#	255575
#	269978
#	284756
#	300685
#	314868
#	330505
#	344106
#
# Disc length: 4786 seconds
# Revision: 2
# Processed by: cddbd v1.5.2PL0 Copyright (c) Steve Scherf et al.
# Submitted via: dBpowerAMP V12.0
#
DISCID=8712b019
DTITLE=Various Artist - Bo Carter and The Mississippi Sheiks disc 2
DYEAR=2011
DGENRE=Blues
TTITLE0=Charlie McCoy - Northern Starvers are Returning Home
TTITLE1=Bo Carter - My Pencil Won't Write No More
TTITLE2=Bo Carter - Banana In Your Fruit Basket
TTITLE3=Bo Carter - Sorry Feeling Blues
TTITLE4=Bo Carter - Twist It Baby
TTITLE5=Bo Carter - The Law Gonna Step On You
TTITLE6=Bo Carter - Howling Tom Cat Blues
TTITLE7=Bo Carter - What Kind of Scent Is This
TTITLE8=Mississippi Sheiks - The World is Going Wrong
TTITLE9=Mississippi Sheiks - She's a Bad Girl
TTITLE10=Mississippi Sheiks - Kind Treatment
TTITLE11=Mississippi Sheiks - Living In a Strain
TTITLE12=Mississippi Sheiks - Too Long
TTITLE13=Bo Carter - I Want You to Know
TTITLE14=Bo Carter - Last Go Round
TTITLE15=Bo Carter - Beans
TTITLE16=Bo Carter - Nobody Knows My Baby
TTITLE17=Bo Carter - Please Don't Drive Me From Your Door
TTITLE18=Mississippi Sheiks - Bed Spring Poker
TTITLE19=Mississippi Sheiks - I Got Blood In My Eyes for You
TTITLE20=Mississippi Sheiks - Shooting High Dice
TTITLE21=Mississippi Sheiks - She's Crazy About Her Lovin'
TTITLE22=Mississippi Sheiks - He Calls That Religion
TTITLE23=Mississippi Sheiks - Hitting the Numbers
TTITLE24=Mississippi Sheiks - It's Done Got Wet
EXTD=
EXTT0=
EXTT1=
EXTT2=
EXTT3=
EXTT4=
EXTT5=
EXTT6=
EXTT7=
EXTT8=
EXTT9=
EXTT10=
EXTT11=
EXTT12=
EXTT13=
EXTT14=
EXTT15=
EXTT16=
EXTT17=
EXTT18=
EXTT19=
EXTT20=
EXTT21=
EXTT22=
EXTT23=
EXTT24=
PLAYORDER=
